<svg width="60" height="61" viewBox="0 0 60 61" fill="none" xmlns="http://www.w3.org/2000/svg">
<rect width="60" height="61" fill="#1E1E1E"/>
<g id="Chat">
<rect x="-30" y="-30" width="663" height="468.008" rx="21" fill="white"/>
<g id="Frame 67">
<g id="Frame 59">
<path id="Vector" d="M49.1376 7.01804C45.9701 4.33824 42.291 2.35449 38.3321 1.19177C34.3732 0.0290551 30.2203 -0.28742 26.1351 0.262287C18.5778 1.26045 11.6774 5.14526 6.83495 11.1279C1.99253 17.1106 -0.428851 24.7427 0.0624515 32.4744C0.553753 40.2062 3.92091 47.458 9.48023 52.7575C15.0396 58.057 22.3743 61.0069 29.9951 61.0081H47.4501C50.7641 61.0041 53.9413 59.6639 56.2846 57.2815C58.6279 54.8991 59.9462 51.669 59.9501 48.2998V28.7518V28.5917C59.6856 24.4372 58.5902 20.3812 56.7311 16.6718C54.872 12.9624 52.2882 9.67753 49.1376 7.01804ZM19.9501 17.7998H29.9501C30.6132 17.7998 31.2491 18.0676 31.7179 18.5442C32.1868 19.0209 32.4501 19.6674 32.4501 20.3415C32.4501 21.0155 32.1868 21.662 31.7179 22.1387C31.2491 22.6153 30.6132 22.8831 29.9501 22.8831H19.9501C19.2871 22.8831 18.6512 22.6153 18.1824 22.1387C17.7135 21.662 17.4501 21.0155 17.4501 20.3415C17.4501 19.6674 17.7135 19.0209 18.1824 18.5442C18.6512 18.0676 19.2871 17.7998 19.9501 17.7998ZM39.9501 43.2165H19.9501C19.2871 43.2165 18.6512 42.9487 18.1824 42.472C17.7135 41.9954 17.4501 41.3489 17.4501 40.6748C17.4501 40.0007 17.7135 39.3542 18.1824 38.8776C18.6512 38.4009 19.2871 38.1331 19.9501 38.1331H39.9501C40.6132 38.1331 41.2491 38.4009 41.7179 38.8776C42.1868 39.3542 42.4501 40.0007 42.4501 40.6748C42.4501 41.3489 42.1868 41.9954 41.7179 42.472C41.2491 42.9487 40.6132 43.2165 39.9501 43.2165ZM39.9501 33.0498H19.9501C19.2871 33.0498 18.6512 32.782 18.1824 32.3054C17.7135 31.8287 17.4501 31.1822 17.4501 30.5081C17.4501 29.834 17.7135 29.1875 18.1824 28.7109C18.6512 28.2342 19.2871 27.9665 19.9501 27.9665H39.9501C40.6132 27.9665 41.2491 28.2342 41.7179 28.7109C42.1868 29.1875 42.4501 29.834 42.4501 30.5081C42.4501 31.1822 42.1868 31.8287 41.7179 32.3054C41.2491 32.782 40.6132 33.0498 39.9501 33.0498Z" fill="#6D3BBF"/>
</g>
</g>
</g>
</svg>
