<svg width="13" height="14" viewBox="0 0 13 14" fill="none" xmlns="http://www.w3.org/2000/svg">
<g clipPath="url(#clip0_38_2244)">
<path d="M9.75 10.7913C9.75 12.5588 8.41208 13.9997 6.77083 13.9997H2.97917C1.33792 13.9997 0 12.5588 0 10.7913V6.708C0 4.9405 1.33792 3.49967 2.97917 3.49967C3.42875 3.49967 3.79167 3.8905 3.79167 4.37467C3.79167 4.85884 3.42875 5.24967 2.97917 5.24967C2.23167 5.24967 1.625 5.903 1.625 6.708V10.7913C1.625 11.5963 2.23167 12.2497 2.97917 12.2497H6.77083C7.51833 12.2497 8.125 11.5963 8.125 10.7913C8.125 10.3072 8.48792 9.91634 8.9375 9.91634C9.38708 9.91634 9.75 10.3072 9.75 10.7913ZM12.4583 2.94551L10.0642 0.268005C9.75 -0.0819946 9.24083 -0.0936613 8.91583 0.244672C8.59083 0.583005 8.58 1.13134 8.89417 1.48134L10.6979 3.49967H7.3125C5.67125 3.49967 4.33333 4.9405 4.33333 6.708V9.62467C4.33333 10.1088 4.69625 10.4997 5.14583 10.4997C5.59542 10.4997 5.95833 10.1088 5.95833 9.62467V6.708C5.95833 5.903 6.565 5.24967 7.3125 5.24967H10.6979L8.89417 7.268C8.58542 7.618 8.59083 8.17217 8.91583 8.50467C9.07292 8.668 9.27875 8.74967 9.47917 8.74967C9.69042 8.74967 9.90708 8.66217 10.0642 8.48134L12.4421 5.82134C13.1842 5.028 13.1842 3.72717 12.4529 2.94551H12.4583Z" fill="#2E2E2E"/>
</g>
<defs>
<clipPath id="clip0_38_2244">
<rect width="13" height="14" fill="white"/>
</clipPath>
</defs>
</svg>
