<svg width="17" height="18" viewBox="0 0 17 18" fill="none" xmlns="http://www.w3.org/2000/svg">
<g clip-path="url(#clip0_36_1182)">
<path d="M12.6001 13.6826C12.6001 15.8288 10.9534 17.5784 8.93343 17.5784H4.26676C2.24676 17.5784 0.600098 15.8288 0.600098 13.6826V8.72422C0.600098 6.57797 2.24676 4.82839 4.26676 4.82839C4.8201 4.82839 5.26676 5.30297 5.26676 5.89089C5.26676 6.47881 4.8201 6.95339 4.26676 6.95339C3.34676 6.95339 2.6001 7.74672 2.6001 8.72422V13.6826C2.6001 14.6601 3.34676 15.4534 4.26676 15.4534H8.93343C9.85343 15.4534 10.6001 14.6601 10.6001 13.6826C10.6001 13.0946 11.0468 12.6201 11.6001 12.6201C12.1534 12.6201 12.6001 13.0946 12.6001 13.6826ZM15.9334 4.15547L12.9868 0.904223C12.6001 0.479223 11.9734 0.465056 11.5734 0.875889C11.1734 1.28672 11.1601 1.95256 11.5468 2.37756L13.7668 4.82839H9.6001C7.5801 4.82839 5.93343 6.57797 5.93343 8.72422V12.2659C5.93343 12.8538 6.3801 13.3284 6.93343 13.3284C7.48676 13.3284 7.93343 12.8538 7.93343 12.2659V8.72422C7.93343 7.74672 8.6801 6.95339 9.6001 6.95339H13.7668L11.5468 9.40422C11.1668 9.82922 11.1734 10.5021 11.5734 10.9059C11.7668 11.1042 12.0201 11.2034 12.2668 11.2034C12.5268 11.2034 12.7934 11.0971 12.9868 10.8776L15.9134 7.64755C16.8268 6.68422 16.8268 5.10464 15.9268 4.15547H15.9334Z" fill="#492387"/>
</g>
<defs>
<clipPath id="clip0_36_1182">
<rect width="16" height="17" fill="white" transform="translate(0.600098 0.578613)"/>
</clipPath>
</defs>
</svg>
