<svg width="25" height="25" viewBox="0 0 25 25" fill="none" xmlns="http://www.w3.org/2000/svg">
<g id="editar 1" clipPath="url(#clip0_36_1560)">
<path id="Vector" d="M21.875 11.9792V15.625H18.75C17.9212 15.625 17.1263 15.9542 16.5403 16.5403C15.9542 17.1263 15.625 17.9212 15.625 18.75V21.875H4.6875C4.2731 21.875 3.87567 21.7104 3.58265 21.4174C3.28962 21.1243 3.125 20.7269 3.125 20.3125V4.6875C3.125 4.2731 3.28962 3.87567 3.58265 3.58265C3.87567 3.28962 4.2731 3.125 4.6875 3.125H14.0625C14.4769 3.125 14.8743 2.96038 15.1674 2.66735C15.4604 2.37433 15.625 1.9769 15.625 1.5625C15.625 1.1481 15.4604 0.750671 15.1674 0.457646C14.8743 0.16462 14.4769 0 14.0625 0L4.6875 0C3.4443 0 2.25201 0.49386 1.37294 1.37294C0.49386 2.25201 0 3.4443 0 4.6875L0 20.3125C0 21.5557 0.49386 22.748 1.37294 23.6271C2.25201 24.5061 3.4443 25 4.6875 25H17.1708C18.4135 25 19.6054 24.5066 20.4844 23.6281L23.6271 20.4854C24.5059 19.6066 24.9997 18.4147 25 17.1719V11.9792C25 11.5648 24.8354 11.1673 24.5424 10.8743C24.2493 10.5813 23.8519 10.4167 23.4375 10.4167C23.0231 10.4167 22.6257 10.5813 22.3326 10.8743C22.0396 11.1673 21.875 11.5648 21.875 11.9792Z" fill="#5A2DA4"/>
<path id="Vector_2" d="M18.5345 1.86758L5.5137 14.8884C5.31834 15.0837 5.20856 15.3486 5.2085 15.6249V18.7499C5.2085 19.0261 5.31824 19.2911 5.51359 19.4864C5.70894 19.6818 5.9739 19.7915 6.25016 19.7915H9.37516C9.65141 19.7915 9.91632 19.6817 10.1116 19.4863L22.9564 6.64154C23.3911 6.22241 23.7106 5.69852 23.8842 5.12023C24.0579 4.54194 24.0799 3.9287 23.9481 3.33946C23.8006 2.79144 23.5121 2.29163 23.1113 1.88982C22.7106 1.48801 22.2115 1.19822 21.6639 1.04932C21.1162 0.900429 20.5392 0.897626 19.9901 1.04119C19.441 1.18476 18.9392 1.46968 18.5345 1.86758Z" fill="#5A2DA4"/>
</g>
<defs>
<clipPath id="clip0_36_1560">
<rect width="25" height="25" fill="white"/>
</clipPath>
</defs>
</svg>
