<svg width="29" height="29" viewBox="0 0 29 29" fill="none" xmlns="http://www.w3.org/2000/svg">
<g id="adicionar-sacola-de-compras 1" clip-path="url(#clip0_38_1936)">
<path id="Vector" d="M25.375 7.25H21.75C21.75 5.32718 20.9862 3.48311 19.6265 2.12348C18.2669 0.763837 16.4228 0 14.5 0C12.5772 0 10.7331 0.763837 9.37348 2.12348C8.01384 3.48311 7.25 5.32718 7.25 7.25H3.625C2.66359 7.25 1.74156 7.63192 1.06174 8.31174C0.381919 8.99156 0 9.91359 0 10.875L0 22.9583C0.00191866 24.5601 0.639066 26.0957 1.77168 27.2283C2.9043 28.3609 4.43991 28.9981 6.04167 29H20.1623C19.3222 28.454 18.6045 27.7398 18.0543 26.9024C17.5042 26.0651 17.1335 25.1228 16.9658 24.1351C16.7981 23.1473 16.8369 22.1355 17.0798 21.1635C17.3227 20.1915 17.7645 19.2804 18.3772 18.4877C18.9899 17.695 19.7602 17.0379 20.6396 16.5578C21.519 16.0777 22.4883 15.7851 23.4865 15.6985C24.4846 15.6118 25.4899 15.733 26.4388 16.0544C27.3878 16.3757 28.2599 16.8903 29 17.5655V10.875C29 9.91359 28.6181 8.99156 27.9383 8.31174C27.2584 7.63192 26.3364 7.25 25.375 7.25ZM9.66667 7.25C9.66667 5.96812 10.1759 4.73874 11.0823 3.83232C11.9887 2.92589 13.2181 2.41667 14.5 2.41667C15.7819 2.41667 17.0113 2.92589 17.9177 3.83232C18.8241 4.73874 19.3333 5.96812 19.3333 7.25H9.66667Z" fill="#6D3BBF"/>
<path id="Vector_2" d="M27.7918 21.75H25.3752V19.3333C25.3752 19.0129 25.2479 18.7055 25.0213 18.4789C24.7946 18.2523 24.4873 18.125 24.1668 18.125C23.8464 18.125 23.539 18.2523 23.3124 18.4789C23.0858 18.7055 22.9585 19.0129 22.9585 19.3333V21.75H20.5418C20.2214 21.75 19.914 21.8773 19.6874 22.1039C19.4608 22.3305 19.3335 22.6379 19.3335 22.9583C19.3335 23.2788 19.4608 23.5861 19.6874 23.8128C19.914 24.0394 20.2214 24.1667 20.5418 24.1667H22.9585V26.5833C22.9585 26.9038 23.0858 27.2111 23.3124 27.4378C23.539 27.6644 23.8464 27.7917 24.1668 27.7917C24.4873 27.7917 24.7946 27.6644 25.0213 27.4378C25.2479 27.2111 25.3752 26.9038 25.3752 26.5833V24.1667H27.7918C28.1123 24.1667 28.4196 24.0394 28.6463 23.8128C28.8729 23.5861 29.0002 23.2788 29.0002 22.9583C29.0002 22.6379 28.8729 22.3305 28.6463 22.1039C28.4196 21.8773 28.1123 21.75 27.7918 21.75Z" fill="#6D3BBF"/>
</g>
<defs>
<clipPath id="clip0_38_1936">
<rect width="29" height="29" fill="white"/>
</clipPath>
</defs>
</svg>
