<svg width="21" height="21" viewBox="0 0 21 21" fill="none" xmlns="http://www.w3.org/2000/svg">
<path d="M15.681 1.31676C15.6806 1.66474 15.5422 1.99835 15.296 2.24426L8.58295 8.95726C8.37976 9.16039 8.21858 9.40157 8.10861 9.667C7.99864 9.93244 7.94204 10.2169 7.94204 10.5043C7.94204 10.7916 7.99864 11.0761 8.10861 11.3415C8.21858 11.6069 8.37976 11.8481 8.58295 12.0513L15.2872 18.7555C15.5263 19.003 15.6586 19.3346 15.6556 19.6787C15.6526 20.0229 15.5146 20.352 15.2712 20.5954C15.0279 20.8387 14.6987 20.9768 14.3545 20.9798C14.0104 20.9828 13.6789 20.8505 13.4313 20.6114L6.72707 13.9124C5.82562 13.0092 5.31934 11.7852 5.31934 10.5091C5.31934 9.23296 5.82562 8.00899 6.72707 7.10576L13.4401 0.388383C13.6236 0.204706 13.8576 0.0796069 14.1122 0.0289146C14.3669 -0.0217778 14.6309 0.0042151 14.8708 0.103604C15.1107 0.202993 15.3157 0.371311 15.4599 0.58726C15.6042 0.803209 15.6811 1.05708 15.681 1.31676Z" fill="#2E2E2E"/>
</svg>
