<svg width="13" height="15" viewBox="0 0 13 15" fill="none" xmlns="http://www.w3.org/2000/svg">
<g id="compartilhar-quadrado 1" clip-path="url(#clip0_38_3075)">
<path id="Vector" d="M9.75 11.2913C9.75 13.0588 8.41208 14.4997 6.77083 14.4997H2.97917C1.33792 14.4997 0 13.0588 0 11.2913V7.208C0 5.4405 1.33792 3.99967 2.97917 3.99967C3.42875 3.99967 3.79167 4.3905 3.79167 4.87467C3.79167 5.35884 3.42875 5.74967 2.97917 5.74967C2.23167 5.74967 1.625 6.403 1.625 7.208V11.2913C1.625 12.0963 2.23167 12.7497 2.97917 12.7497H6.77083C7.51833 12.7497 8.125 12.0963 8.125 11.2913C8.125 10.8072 8.48792 10.4163 8.9375 10.4163C9.38708 10.4163 9.75 10.8072 9.75 11.2913ZM12.4583 3.44551L10.0642 0.768005C9.75 0.418005 9.24083 0.406339 8.91583 0.744672C8.59083 1.08301 8.58 1.63134 8.89417 1.98134L10.6979 3.99967H7.3125C5.67125 3.99967 4.33333 5.4405 4.33333 7.208V10.1247C4.33333 10.6088 4.69625 10.9997 5.14583 10.9997C5.59542 10.9997 5.95833 10.6088 5.95833 10.1247V7.208C5.95833 6.403 6.565 5.74967 7.3125 5.74967H10.6979L8.89417 7.768C8.58542 8.118 8.59083 8.67217 8.91583 9.00467C9.07292 9.168 9.27875 9.24967 9.47917 9.24967C9.69042 9.24967 9.90708 9.16217 10.0642 8.98134L12.4421 6.32134C13.1842 5.528 13.1842 4.22717 12.4529 3.44551H12.4583Z" fill="#2E2E2E"/>
</g>
<defs>
<clipPath id="clip0_38_3075">
<rect width="13" height="14" fill="white" transform="translate(0 0.5)"/>
</clipPath>
</defs>
</svg>
