<svg width="23" height="23" viewBox="0 0 23 23" fill="none" xmlns="http://www.w3.org/2000/svg">
<g id="trancar 1" clipPath="url(#clip0_36_1675)">
<g id="Group">
<path id="Vector" d="M18.2508 8.15499V6.75083C18.2508 3.02245 15.2283 0 11.4999 0C7.77156 0 4.74916 3.02245 4.74916 6.75079V8.15494C2.97545 9.06011 1.85813 10.8824 1.85596 12.8738V17.6958C1.85917 20.6239 4.23204 22.9968 7.16014 23H15.8397C18.7678 22.9967 21.1408 20.6239 21.1439 17.6958V12.8738C21.1418 10.8825 20.0245 9.06011 18.2508 8.15499ZM11.4999 2.8932C13.6304 2.8932 15.3575 4.62031 15.3575 6.75079V7.56956H7.64236V6.75079C7.64236 4.62031 9.36947 2.8932 11.4999 2.8932ZM18.2508 17.6958C18.2508 19.0273 17.1713 20.1068 15.8398 20.1068H7.16019C5.82864 20.1068 4.7492 19.0273 4.7492 17.6958V12.8738C4.7492 11.5422 5.82864 10.4628 7.16019 10.4628H15.8398C17.1713 10.4628 18.2508 11.5422 18.2508 12.8738V17.6958Z" fill="#5A2DA4"/>
<path id="Vector_2" d="M11.0179 13.356H11.9823C12.7812 13.356 13.4289 14.0036 13.4289 14.8026C13.4289 15.6015 12.7812 16.2492 11.9823 16.2492H11.0179C10.219 16.2492 9.57129 15.6015 9.57129 14.8026C9.57129 14.0036 10.219 13.356 11.0179 13.356Z" fill="#5A2DA4"/>
</g>
</g>
<defs>
<clipPath id="clip0_36_1675">
<rect width="23" height="23" fill="white"/>
</clipPath>
</defs>
</svg>
