<svg width="19" height="19" viewBox="0 0 19 19" fill="none" xmlns="http://www.w3.org/2000/svg">
<g clip-path="url(#clip0_36_1192)">
<path d="M16.625 9.10417V11.875H14.25C13.6201 11.875 13.016 12.1252 12.5706 12.5706C12.1252 13.016 11.875 13.6201 11.875 14.25V16.625H3.5625C3.24756 16.625 2.94551 16.4999 2.72281 16.2772C2.50011 16.0545 2.375 15.7524 2.375 15.4375V3.5625C2.375 3.24756 2.50011 2.94551 2.72281 2.72281C2.94551 2.50011 3.24756 2.375 3.5625 2.375H10.6875C11.0024 2.375 11.3045 2.24989 11.5272 2.02719C11.7499 1.80449 11.875 1.50244 11.875 1.1875C11.875 0.872555 11.7499 0.57051 11.5272 0.347811C11.3045 0.125111 11.0024 0 10.6875 0L3.5625 0C2.61767 0 1.71153 0.375334 1.04343 1.04343C0.375334 1.71153 0 2.61767 0 3.5625L0 15.4375C0 16.3823 0.375334 17.2885 1.04343 17.9566C1.71153 18.6247 2.61767 19 3.5625 19H13.0498C13.9943 19 14.9001 18.625 15.5681 17.9574L17.9566 15.5689C18.6245 14.901 18.9998 13.9952 19 13.0506V9.10417C19 8.78922 18.8749 8.48718 18.6522 8.26448C18.4295 8.04178 18.1274 7.91667 17.8125 7.91667C17.4976 7.91667 17.1955 8.04178 16.9728 8.26448C16.7501 8.48718 16.625 8.78922 16.625 9.10417Z" fill="white"/>
<path d="M14.0863 1.41953L4.19045 11.3154C4.04198 11.4638 3.95854 11.6651 3.9585 11.8751V14.2501C3.9585 14.46 4.0419 14.6614 4.19037 14.8099C4.33884 14.9583 4.5402 15.0417 4.75016 15.0417H7.12516C7.33511 15.0417 7.53644 14.9583 7.68487 14.8098L17.4469 5.04774C17.7772 4.7292 18.0201 4.33104 18.1521 3.89154C18.284 3.45204 18.3008 2.98598 18.2006 2.53815C18.0885 2.12166 17.8692 1.74181 17.5647 1.43643C17.2601 1.13105 16.8808 0.910812 16.4646 0.797652C16.0484 0.684492 15.6098 0.682362 15.1925 0.791472C14.7752 0.900582 14.3938 1.11713 14.0863 1.41953Z" fill="white"/>
</g>
<defs>
<clipPath id="clip0_36_1192">
<rect width="19" height="19" fill="white"/>
</clipPath>
</defs>
</svg>
