<svg width="11" height="12" viewBox="0 0 11 12" fill="none" xmlns="http://www.w3.org/2000/svg">
<g clip-path="url(#clip0_27_3087)">
<path d="M6.47207 6.00005L10.7986 1.67402C11.0671 1.40546 11.0671 0.970029 10.7986 0.701485C10.53 0.43292 10.0946 0.43292 9.82603 0.701485L5.49998 5.02796L1.17396 0.701485C0.905395 0.43292 0.469968 0.43292 0.201424 0.701485C-0.0671198 0.97005 -0.0671413 1.40548 0.201424 1.67402L4.5279 6.00005L0.201424 10.3261C-0.0671413 10.5947 -0.0671413 11.0301 0.201424 11.2986C0.469989 11.5672 0.905416 11.5672 1.17396 11.2986L5.49998 6.97213L9.82601 11.2986C10.0946 11.5672 10.53 11.5672 10.7985 11.2986C11.0671 11.0301 11.0671 10.5946 10.7985 10.3261L6.47207 6.00005Z" fill="white"/>
</g>
<defs>
<clipPath id="clip0_27_3087">
<rect width="11" height="11" fill="white" transform="translate(0 0.500061)"/>
</clipPath>
</defs>
</svg>
