<svg width="13" height="12" viewBox="0 0 13 12" fill="none" xmlns="http://www.w3.org/2000/svg">
<g clip-path="url(#clip0_115_6)">
<path d="M12.1875 5.25006H7.3125V0.750061C7.3125 0.33585 6.94873 6.10352e-05 6.5 6.10352e-05C6.05127 6.10352e-05 5.6875 0.33585 5.6875 0.750061V5.25006H0.8125C0.363771 5.25006 0 5.58585 0 6.00006C0 6.41427 0.363771 6.75006 0.8125 6.75006H5.6875V11.2501C5.6875 11.6643 6.05127 12.0001 6.5 12.0001C6.94873 12.0001 7.3125 11.6643 7.3125 11.2501V6.75006H12.1875C12.6362 6.75006 13 6.41427 13 6.00006C13 5.58585 12.6362 5.25006 12.1875 5.25006Z" fill="#5A2DA4"/>
</g>
<defs>
<clipPath id="clip0_115_6">
<rect width="13" height="12" fill="white"/>
</clipPath>
</defs>
</svg>
