<svg width="20" height="21" viewBox="0 0 20 21" fill="none" xmlns="http://www.w3.org/2000/svg">
<g clipPath="url(#clip0_36_1213)">
<path d="M19.1669 4.25C19.1669 3.55965 18.6072 3 17.9169 3H14.7702C14.2436 1.50613 12.8341 0.505078 11.2502 0.5H8.75018C7.16623 0.505078 5.75674 1.50613 5.23018 3H2.0835C1.39314 3 0.833496 3.55965 0.833496 4.25C0.833496 4.94035 1.39314 5.5 2.0835 5.5H2.50018V15.9167C2.50018 18.448 4.55221 20.5 7.0835 20.5H12.9168C15.4481 20.5 17.5002 18.448 17.5002 15.9167V5.5H17.9169C18.6072 5.5 19.1669 4.94035 19.1669 4.25ZM15.0002 15.9167C15.0002 17.0673 14.0674 18 12.9169 18H7.0835C5.93291 18 5.00018 17.0673 5.00018 15.9167V5.5H15.0002V15.9167Z" fill="white"/>
<path d="M7.91699 15.5C8.60734 15.5 9.16699 14.9404 9.16699 14.25V9.25C9.16699 8.55965 8.60734 8 7.91699 8C7.22664 8 6.66699 8.55965 6.66699 9.25V14.25C6.66699 14.9404 7.22664 15.5 7.91699 15.5Z" fill="white"/>
<path d="M12.0835 15.5C12.7738 15.5 13.3335 14.9404 13.3335 14.25V9.25C13.3335 8.55965 12.7738 8 12.0835 8C11.3931 8 10.8335 8.55965 10.8335 9.25V14.25C10.8335 14.9404 11.3931 15.5 12.0835 15.5Z" fill="white"/>
</g>
<defs>
<clipPath id="clip0_36_1213">
<rect width="20" height="20" fill="white" transform="translate(0 0.5)"/>
</clipPath>
</defs>
</svg>
