<svg width="17" height="16" viewBox="0 0 17 16" fill="none" xmlns="http://www.w3.org/2000/svg">
<g clip-path="url(#clip0_32_277)">
<path d="M11.3638 9.33334H5.63621C4.70532 9.3344 3.81289 9.68291 3.15465 10.3024C2.49642 10.9219 2.12612 11.7619 2.125 12.638V16H14.875V12.638C14.8739 11.7619 14.5036 10.9219 13.8453 10.3024C13.1871 9.68291 12.2947 9.3344 11.3638 9.33334Z" fill="#2E2E2E"/>
<path d="M8.5 8C10.8472 8 12.75 6.20914 12.75 4C12.75 1.79086 10.8472 0 8.5 0C6.15279 0 4.25 1.79086 4.25 4C4.25 6.20914 6.15279 8 8.5 8Z" fill="#2E2E2E"/>
</g>
<defs>
<clipPath id="clip0_32_277">
<rect width="17" height="16" fill="white"/>
</clipPath>
</defs>
</svg>
