<svg width="33" height="33" viewBox="0 0 33 33" fill="none" xmlns="http://www.w3.org/2000/svg">
<g clip-path="url(#clip0_37_1760)">
<path d="M26.125 5.5H24.6125C24.2934 3.94819 23.449 2.55385 22.2217 1.55199C20.9944 0.550124 19.4593 0.00199997 17.875 0L15.125 0C13.5407 0.00199997 12.0056 0.550124 10.7783 1.55199C9.551 2.55385 8.70663 3.94819 8.3875 5.5H6.875C5.05231 5.50218 3.30489 6.22721 2.01605 7.51605C0.727213 8.80489 0.0021833 10.5523 0 12.375L0 16.5H33V12.375C32.9978 10.5523 32.2728 8.80489 30.9839 7.51605C29.6951 6.22721 27.9477 5.50218 26.125 5.5ZM11.253 5.5C11.5364 4.6985 12.0604 4.00413 12.7535 3.51187C13.4466 3.01962 14.2749 2.75352 15.125 2.75H17.875C18.7251 2.75352 19.5534 3.01962 20.2465 3.51187C20.9396 4.00413 21.4636 4.6985 21.747 5.5H11.253Z" fill="#2E2E2E"/>
<path d="M17.875 20.625C17.875 20.9897 17.7301 21.3394 17.4723 21.5973C17.2144 21.8551 16.8647 22 16.5 22C16.1353 22 15.7856 21.8551 15.5277 21.5973C15.2699 21.3394 15.125 20.9897 15.125 20.625V19.25H0V26.125C0.0021833 27.9477 0.727213 29.6951 2.01605 30.9839C3.30489 32.2728 5.05231 32.9978 6.875 33H26.125C27.9477 32.9978 29.6951 32.2728 30.9839 30.9839C32.2728 29.6951 32.9978 27.9477 33 26.125V19.25H17.875V20.625Z" fill="#2E2E2E"/>
</g>
<defs>
<clipPath id="clip0_37_1760">
<rect width="33" height="33" fill="white"/>
</clipPath>
</defs>
</svg>
