<svg width="19" height="19" viewBox="0 0 19 19" fill="none" xmlns="http://www.w3.org/2000/svg">
<g clip-path="url(#clip0_36_1203)">
<path d="M15.0768 6.73673V5.57678C15.0768 2.4968 12.5799 0 9.49998 0C6.42001 0 3.92324 2.4968 3.92324 5.57674V6.73669C2.458 7.48443 1.535 8.98982 1.5332 10.6348V14.6182C1.53585 17.0371 3.49606 18.9974 5.91492 19H13.085C15.5039 18.9973 17.4641 17.0371 17.4668 14.6182V10.6349C17.465 8.98986 16.542 7.48443 15.0768 6.73673ZM9.49998 2.39004C11.2599 2.39004 12.6867 3.81678 12.6867 5.57674V6.25312H6.31327V5.57674C6.31327 3.81678 7.74001 2.39004 9.49998 2.39004ZM15.0768 14.6182C15.0768 15.7182 14.185 16.6099 13.0851 16.6099H5.91496C4.81498 16.6099 3.92328 15.7182 3.92328 14.6182V10.6349C3.92328 9.5349 4.81498 8.64319 5.91496 8.64319H13.0851C14.185 8.64319 15.0768 9.5349 15.0768 10.6349V14.6182Z" fill="white"/>
<path d="M9.10176 11.0332H9.89842C10.5584 11.0332 11.0934 11.5682 11.0934 12.2282C11.0934 12.8882 10.5584 13.4232 9.89842 13.4232H9.10176C8.44177 13.4232 7.90674 12.8882 7.90674 12.2282C7.90674 11.5682 8.44177 11.0332 9.10176 11.0332Z" fill="white"/>
</g>
<defs>
<clipPath id="clip0_36_1203">
<rect width="19" height="19" fill="white"/>
</clipPath>
</defs>
</svg>
