<svg width="31" height="30" viewBox="0 0 31 30" fill="none" xmlns="http://www.w3.org/2000/svg">
<g id="do-utilizador 1" clip-path="url(#clip0_38_3068)">
<path id="Vector" d="M20.7222 17.5H10.2778C8.5803 17.502 6.95291 18.1554 5.7526 19.317C4.55229 20.4786 3.87705 22.0535 3.875 23.6963V30H27.125V23.6963C27.1229 22.0535 26.4477 20.4786 25.2474 19.317C24.0471 18.1554 22.4197 17.502 20.7222 17.5Z" fill="#2E2E2E"/>
<path id="Vector_2" d="M15.5 15C19.7802 15 23.25 11.6421 23.25 7.5C23.25 3.35786 19.7802 0 15.5 0C11.2198 0 7.75 3.35786 7.75 7.5C7.75 11.6421 11.2198 15 15.5 15Z" fill="#2E2E2E"/>
</g>
<defs>
<clipPath id="clip0_38_3068">
<rect width="31" height="30" fill="white"/>
</clipPath>
</defs>
</svg>
