<svg width="13" height="14" viewBox="0 0 13 14" fill="none" xmlns="http://www.w3.org/2000/svg">
<path d="M12.7627 12.1162L10.2465 9.59898C12.1292 7.08306 11.6159 3.51727 9.09995 1.63458C6.58403 -0.248098 3.01824 0.265248 1.13556 2.78117C-0.747121 5.29709 -0.233775 8.86288 2.28214 10.7456C4.30314 12.2579 7.07893 12.2579 9.09995 10.7456L11.6171 13.2627C11.9335 13.5791 12.4463 13.5791 12.7626 13.2627C13.079 12.9464 13.079 12.4336 12.7626 12.1172L12.7627 12.1162ZM5.71203 10.2597C3.476 10.2597 1.66336 8.44708 1.66336 6.21105C1.66336 3.97502 3.476 2.16238 5.71203 2.16238C7.94806 2.16238 9.7607 3.97502 9.7607 6.21105C9.75832 8.44607 7.94707 10.2573 5.71203 10.2597Z" fill="#2E2E2E"/>
</svg>
