<svg width="24" height="22" viewBox="0 0 24 22" fill="none" xmlns="http://www.w3.org/2000/svg">
<path d="M17.5 0.416992C16.3739 0.434507 15.2724 0.748845 14.3067 1.32826C13.341 1.90768 12.5453 2.73166 12 3.71699C11.4546 2.73166 10.6589 1.90768 9.6932 1.32826C8.7275 0.748845 7.62601 0.434507 6.49996 0.416992C4.7049 0.494983 3.01366 1.28025 1.79574 2.60122C0.577818 3.9222 -0.0677922 5.67152 -4.17093e-05 7.46699C-4.17093e-05 12.014 4.78596 16.98 8.79996 20.347C9.69618 21.1001 10.8293 21.513 12 21.513C13.1706 21.513 14.3037 21.1001 15.2 20.347C19.214 16.98 24 12.014 24 7.46699C24.0677 5.67152 23.4221 3.9222 22.2042 2.60122C20.9863 1.28025 19.295 0.494983 17.5 0.416992Z" fill="#5A2DA4"/>
</svg>
