<svg width="18" height="19" viewBox="0 0 18 19" fill="none" xmlns="http://www.w3.org/2000/svg">
<g clip-path="url(#clip0_34_542)">
<path d="M9.042 8.90831L15.0713 13.9468L10.8008 17.1501C9.73425 17.9503 8.26725 17.9503 7.20075 17.1501L2.601 13.7001C2.21175 13.4083 1.73775 13.2501 1.251 13.2501H0.75075C0.336 13.2501 0 12.9141 0 12.5001V4.20281C0 3.82181 0.28425 3.50456 0.663 3.46181C1.68075 3.34856 2.59725 2.93981 3.53475 2.39381C4.88325 1.70006 6.6525 1.94756 7.74675 2.97281L8.2095 3.41756L5.20425 6.35081C4.3995 7.15481 4.27125 8.42606 4.90575 9.30431C5.29575 9.84656 6.0015 10.2486 6.73875 10.2486C7.3335 10.2486 7.90425 10.0146 8.31675 9.60131L9.042 8.90756V8.90831ZM14.9655 2.39381C13.698 1.76006 12.117 1.92506 10.9845 2.80481L6.25725 7.41881C5.979 7.69781 5.916 8.14406 6.1215 8.42906C6.2565 8.61656 6.45225 8.72906 6.67575 8.74781C6.897 8.76656 7.1115 8.68631 7.26675 8.53031L9.98025 5.95856C10.692 5.28281 11.7233 6.36131 11.0175 7.04231L10.1318 7.86506L16.5765 13.2508H17.2493C17.6633 13.2508 17.9993 12.9148 17.9993 12.5008V4.17731C17.9993 3.80981 17.7308 3.50606 17.3685 3.44081C16.098 3.21131 14.9648 2.39456 14.9648 2.39456L14.9655 2.39381Z" fill="white"/>
</g>
<defs>
<clipPath id="clip0_34_542">
<rect width="18" height="18" fill="white" transform="translate(0 0.5)"/>
</clipPath>
</defs>
</svg>
