<svg width="17" height="17" viewBox="0 0 17 17" fill="none" xmlns="http://www.w3.org/2000/svg">
<g clipPath="url(#clip0_32_369)">
<path d="M11.3638 10.0938H5.63621C4.70532 10.0948 3.81289 10.4433 3.15465 11.0628C2.49642 11.6824 2.12612 12.5223 2.125 13.3984V16.7604H14.875V13.3984C14.8739 12.5223 14.5036 11.6824 13.8453 11.0628C13.1871 10.4433 12.2947 10.0948 11.3638 10.0938Z" fill="#5A2DA4"/>
<path d="M8.5 8.76043C10.8472 8.76043 12.75 6.96957 12.75 4.76043C12.75 2.55129 10.8472 0.760433 8.5 0.760433C6.15279 0.760433 4.25 2.55129 4.25 4.76043C4.25 6.96957 6.15279 8.76043 8.5 8.76043Z" fill="#5A2DA4"/>
</g>
<defs>
<clipPath id="clip0_32_369">
<rect width="17" height="16" fill="white" transform="translate(0 0.760433)"/>
</clipPath>
</defs>
</svg>
