<svg width="37" height="36" viewBox="0 0 37 36" fill="none" xmlns="http://www.w3.org/2000/svg">
<g clip-path="url(#clip0_27_1321)">
<path d="M36.9291 8.31299L23.9513 20.94C22.5043 22.3444 20.5439 23.133 18.5 23.133C16.4561 23.133 14.4957 22.3444 13.0487 20.94L0.0709167 8.31299C0.0493333 8.54999 0 8.76449 0 8.99999V27C0.00244795 28.9884 0.81536 30.8947 2.26042 32.3007C3.70548 33.7067 5.66471 34.4976 7.70833 34.5H29.2917C31.3353 34.4976 33.2945 33.7067 34.7396 32.3007C36.1846 30.8947 36.9976 28.9884 37 27V8.99999C37 8.76449 36.9507 8.54999 36.9291 8.31299Z" fill="#2E2E2E"/>
<path d="M21.7714 18.819L35.853 5.1165C35.1708 4.01598 34.2087 3.10506 33.0594 2.4716C31.9102 1.83813 30.6125 1.50351 29.2916 1.5H7.70831C6.38744 1.50351 5.08979 1.83813 3.94051 2.4716C2.79124 3.10506 1.82913 4.01598 1.14697 5.1165L15.2286 18.819C16.0974 19.661 17.2737 20.1337 18.5 20.1337C19.7262 20.1337 20.9026 19.661 21.7714 18.819Z" fill="#2E2E2E"/>
</g>
<defs>
<clipPath id="clip0_27_1321">
<rect width="37" height="36" fill="white"/>
</clipPath>
</defs>
</svg>
