<svg width="456" height="405" viewBox="0 0 456 405" fill="none" xmlns="http://www.w3.org/2000/svg">
<path d="M455.19 196.721V163.049C455.195 160.863 454.77 158.697 453.939 156.675C453.107 154.654 451.885 152.817 450.344 151.269C448.802 149.721 446.97 148.493 444.954 147.655C442.937 146.817 440.776 146.385 438.592 146.385H0V387.143C0 389.348 0.433753 391.532 1.2765 393.569C2.11924 395.607 3.35447 397.458 4.91166 399.017C6.46885 400.577 8.3175 401.814 10.3521 402.657C12.3866 403.501 14.5673 403.936 16.7695 403.936H224.814V353.6H59.5768V303.696H150.451V254.698H59.5768V196.721H455.19Z" fill="white"/>
<path d="M445.386 269.249C439.997 259.349 431.824 251.257 421.885 245.981C411.384 240.493 399.683 237.723 387.844 237.921C375.357 237.757 363.029 240.736 351.988 246.587C348.278 248.616 344.789 251.027 341.577 253.78C338.426 250.783 334.948 248.152 331.209 245.937C322.015 240.639 311.571 237.916 300.969 238.051C289.472 237.808 278.087 240.366 267.791 245.504V241.171H209.515V404.783H267.791V291.563C268.251 291.249 268.727 290.96 269.217 290.697C272.823 288.846 276.831 287.923 280.881 288.01C286.666 287.849 292.288 289.946 296.562 293.86C298.722 295.952 300.407 298.486 301.503 301.29C302.599 304.094 303.08 307.101 302.913 310.108V404.783H360.93V300.793C360.923 297.898 360.764 295.005 360.455 292.127C361.121 291.681 361.814 291.276 362.529 290.913C366.089 289.107 370.03 288.185 374.02 288.227C379.808 288.047 385.437 290.146 389.701 294.076C391.861 296.169 393.546 298.703 394.642 301.507C395.737 304.311 396.218 307.318 396.052 310.325V405H454.112V305.385C454.357 292.787 451.351 280.338 445.386 269.249Z" fill="#2E2E2E"/>
<path d="M350.942 126.164H300.315C299.857 107.316 292.106 89.3959 278.718 76.2287C265.329 63.0615 247.364 55.6911 228.658 55.6911C209.952 55.6911 191.987 63.0615 178.599 76.2287C165.21 89.3959 157.46 107.316 157.001 126.164H106.374C106.069 109.785 109.007 93.508 115.015 78.2857C121.024 63.0634 129.982 49.2009 141.368 37.5084C152.753 25.816 166.337 16.5282 181.324 10.1879C196.312 3.84762 212.404 0.582031 228.658 0.582031C244.913 0.582031 261.004 3.84762 275.992 10.1879C290.98 16.5282 304.563 25.816 315.949 37.5084C327.334 49.2009 336.293 63.0634 342.301 78.2857C348.31 93.508 351.247 109.785 350.942 126.164Z" fill="white"/>
</svg>
