<svg width="853" height="765" viewBox="0 0 853 765" fill="none" xmlns="http://www.w3.org/2000/svg">
<path d="M846.674 441.758C834.698 463.116 808.855 475.115 788.001 490.299C725.174 536.296 707.924 624.077 749.545 686.092C766.443 711.333 792.725 736.691 788.682 764.922H0V0H581.15C606.78 36.7796 617.288 80.2378 610.904 123.06C606.949 148.826 596.906 173.542 592.423 199.288C587.941 225.034 589.699 253.149 607.037 274.138C623.232 293.729 650.174 303.864 676.588 310.466C718.538 320.95 763.455 325.144 800.922 344.832C838.389 364.521 865.968 407.217 846.674 441.758Z" fill="#E1DBEB"/>
<path d="M340.766 604.253C337.162 658.948 310.462 710.227 297.849 763.874L297.585 765H0V486.027C28.2941 500.883 60.5059 508.918 93.4156 509.327C131.784 509.599 169.229 499.483 207.4 496.163C245.57 492.842 288.048 497.891 314.33 522.588C336.898 543.81 342.81 575.187 340.766 604.253Z" fill="white"/>
<path d="M630.045 215.812C629.191 214.313 627.823 213.092 626.136 212.324C624.449 211.555 622.529 211.278 620.653 211.532C618.777 211.787 617.04 212.559 615.691 213.74C614.343 214.92 613.452 216.447 613.146 218.103C611.827 226.17 611.827 234.364 613.146 242.431C614.376 252.547 622.046 265.323 631.517 271.09C636.483 274.119 642.812 275.847 648.679 273.381C651.049 272.39 652.887 270.62 653.8 268.449C656.612 261.517 648.943 256.003 643.647 250.858C638.355 245.7 634.84 239.314 633.517 232.451C632.462 226.918 632.813 221.073 630.198 215.967L630.045 215.812Z" fill="#E1DBEB"/>
<path d="M758.554 568.236C758.708 563.421 752.665 562.411 749.896 566.78C747.032 571.468 744.77 576.424 743.15 581.555C740.952 587.904 741.084 596.933 743.985 602.04C745.501 604.719 748.028 606.835 751.5 606.311C753.026 606.058 754.385 605.301 755.302 604.195C758.554 600.447 756.423 595.826 755.302 591.788C754.228 587.54 754.318 583.126 755.566 578.915C756.599 575.381 758.378 571.886 758.532 568.352L758.554 568.236Z" fill="#E1DBEB"/>
</svg>
