<svg width="34" height="35" viewBox="0 0 34 35" fill="none" xmlns="http://www.w3.org/2000/svg">
<g clip-path="url(#clip0_27_1331)">
<path d="M32.5834 16.0417C32.2077 16.0417 31.8473 15.888 31.5817 15.6145C31.316 15.341 31.1667 14.9701 31.1667 14.5833C31.1637 11.4901 29.9687 8.52442 27.844 6.33717C25.7192 4.14991 22.8383 2.91976 19.8334 2.91667C19.4577 2.91667 19.0973 2.76302 18.8317 2.48953C18.566 2.21604 18.4167 1.84511 18.4167 1.45834C18.4167 1.07156 18.566 0.700629 18.8317 0.427139C19.0973 0.153648 19.4577 2.70247e-06 19.8334 2.70247e-06C23.5894 0.00424878 27.1903 1.54207 29.8462 4.27605C32.502 7.01004 33.9959 10.7169 34.0001 14.5833C34.0001 14.9701 33.8508 15.341 33.5851 15.6145C33.3194 15.888 32.9591 16.0417 32.5834 16.0417ZM28.3334 14.5833C28.3334 12.2627 27.4379 10.0371 25.8438 8.39615C24.2497 6.75521 22.0877 5.83334 19.8334 5.83334C19.4577 5.83334 19.0973 5.98698 18.8317 6.26047C18.566 6.53396 18.4167 6.9049 18.4167 7.29167C18.4167 7.67844 18.566 8.04938 18.8317 8.32287C19.0973 8.59636 19.4577 8.75 19.8334 8.75C21.3363 8.75 22.7776 9.36458 23.8403 10.4585C24.903 11.5525 25.5001 13.0362 25.5001 14.5833C25.5001 14.9701 25.6493 15.341 25.915 15.6145C26.1807 15.888 26.541 16.0417 26.9167 16.0417C27.2924 16.0417 27.6528 15.888 27.9185 15.6145C28.1841 15.341 28.3334 14.9701 28.3334 14.5833ZM31.426 32.3225L32.7151 30.7927C33.5357 29.9453 33.9964 28.7976 33.9964 27.6012C33.9964 26.4047 33.5357 25.257 32.7151 24.4096C32.6712 24.3644 29.2627 21.665 29.2627 21.665C28.4447 20.8634 27.3581 20.417 26.2286 20.4187C25.0992 20.4203 24.0138 20.8698 23.198 21.6738L20.4978 24.0158C18.2937 23.0768 16.2916 21.6988 14.6063 19.961C12.921 18.2231 11.5859 16.1597 10.6775 13.8892L12.9441 11.1183C13.7257 10.2786 14.1629 9.16107 14.1647 7.99809C14.1666 6.83511 13.733 5.71613 12.9541 4.87375C12.9541 4.87375 10.329 1.36938 10.2851 1.32417C9.47678 0.486719 8.38089 0.0102431 7.23416 -0.00230907C6.08743 -0.0148613 4.98195 0.437518 4.15655 1.25709L2.52739 2.71542C-7.09745 14.21 13.6284 35.3806 25.1629 35C26.3276 35.007 27.482 34.7736 28.5577 34.3137C29.6334 33.8539 30.6087 33.1768 31.426 32.3225Z" fill="#2E2E2E"/>
</g>
<defs>
<clipPath id="clip0_27_1331">
<rect width="34" height="35" fill="white"/>
</clipPath>
</defs>
</svg>
