<svg width="257" height="52" viewBox="0 0 257 52" fill="none" xmlns="http://www.w3.org/2000/svg">
<path d="M71.5505 26.332H82.5497V21.7114H71.5505V16.5967H83.5981V11.834H71.5505H70.2559H66.0685V36.7388H70.2559H71.5505H83.7707V31.9406H71.5505V26.332Z" fill="#7345D6"/>
<path d="M110.816 20.0711C109.746 19.5052 108.552 19.2209 107.345 19.2444C106.099 19.2242 104.868 19.5207 103.765 20.1066C103.071 20.4861 102.449 20.9881 101.93 21.5887C101.447 20.9655 100.848 20.4444 100.166 20.0549C99.1895 19.5046 98.0867 19.225 96.9691 19.2444C95.7926 19.2243 94.6292 19.496 93.5808 20.0355C93.1544 20.265 92.7564 20.5447 92.3949 20.8686V19.5964H87.0536V36.7388H92.3981V26.7291C92.3806 26.2104 92.5068 25.6971 92.7625 25.247C93.0059 24.8503 93.3504 24.5269 93.7598 24.3106C94.2037 24.0859 94.6955 23.975 95.1919 23.9878C95.9056 23.9681 96.5994 24.2271 97.1289 24.711C97.3971 24.9723 97.6062 25.2891 97.742 25.6397C97.8777 25.9902 97.9368 26.3663 97.9153 26.742V36.7517H103.247V26.742C103.23 26.2231 103.358 25.7097 103.615 25.26C103.856 24.8629 104.2 24.5394 104.609 24.3236C105.053 24.0992 105.544 23.9883 106.041 24.0007C106.756 23.9805 107.451 24.2396 107.981 24.7239C108.248 24.9858 108.457 25.3028 108.592 25.6532C108.727 26.0037 108.786 26.3795 108.764 26.7549V36.7646H114.115V26.1221C114.151 24.8343 113.843 23.5604 113.223 22.4346C112.656 21.4349 111.822 20.616 110.816 20.0711Z" fill="#7345D6"/>
<path d="M131.597 20.4069C130.307 19.6195 128.823 19.2165 127.317 19.2444C126.23 19.2314 125.154 19.4723 124.175 19.9484C123.717 20.1741 123.288 20.4537 122.896 20.7814V19.5964H117.539V43.9716H122.813V35.5764C123.23 35.9157 123.688 36.202 124.175 36.4288C125.161 36.8823 126.233 37.1115 127.317 37.1005C128.824 37.1274 130.307 36.7233 131.597 35.9348C132.838 35.1619 133.851 34.0655 134.528 32.7608C135.255 31.3458 135.621 29.7697 135.592 28.1757C135.624 26.5751 135.258 24.992 134.528 23.5712C133.849 22.27 132.837 21.1771 131.597 20.4069ZM129.679 30.2487C129.369 30.8444 128.905 31.3442 128.336 31.6952C127.728 32.0578 127.032 32.2412 126.326 32.2248C125.639 32.2333 124.963 32.05 124.373 31.6952C123.797 31.352 123.33 30.8502 123.027 30.2487C122.706 29.6042 122.545 28.8906 122.557 28.1692C122.546 27.4311 122.721 26.7022 123.065 26.051C123.372 25.4581 123.837 24.9638 124.408 24.6239C125.012 24.2872 125.691 24.1106 126.382 24.1106C127.072 24.1106 127.751 24.2872 128.356 24.6239C128.925 24.9647 129.39 25.4589 129.698 26.051C130.034 26.7046 130.202 27.4329 130.187 28.1692C130.198 28.8934 130.027 29.6086 129.692 30.2487H129.679Z" fill="#7345D6"/>
<path d="M150.172 19.6125C149.486 19.3551 148.758 19.2302 148.027 19.2444C146.164 19.2444 144.709 19.7966 143.66 20.9009V19.6093H138.316V36.7517H143.66V27.32C143.66 26.2157 143.922 25.387 144.447 24.8337C144.722 24.5538 145.052 24.3353 145.416 24.1923C145.78 24.0494 146.17 23.9852 146.56 24.0039C146.965 23.9972 147.367 24.0695 147.745 24.217C148.078 24.3478 148.376 24.5532 148.618 24.8176L151.795 20.7588C151.349 20.2554 150.793 19.8631 150.172 19.6125Z" fill="#7345D6"/>
<path d="M165.173 20.3003C163.813 19.5533 162.284 19.1772 160.736 19.2089C159.114 19.1835 157.514 19.584 156.091 20.3713C155.071 20.9711 154.177 21.7681 153.461 22.7169C152.746 23.6657 152.222 24.7476 151.92 25.9009C151.619 27.0541 151.545 28.2561 151.704 29.4381C151.862 30.6202 152.25 31.7591 152.844 32.7898C153.653 34.148 154.819 35.2525 156.213 35.98C157.729 36.7672 159.415 37.1632 161.12 37.1327C162.459 37.1485 163.789 36.8973 165.032 36.3933C166.206 35.9091 167.247 35.1472 168.069 34.1718L165.138 31.2076C164.649 31.7773 164.041 32.2296 163.357 32.5315C162.637 32.8334 161.864 32.9829 161.084 32.9706C160.262 32.9918 159.449 32.7912 158.729 32.3894C158.065 32.0031 157.53 31.4266 157.191 30.733C157.073 30.4867 156.975 30.2307 156.9 29.9677L169.047 29.9387C169.13 29.5483 169.194 29.1538 169.239 28.7569C169.273 28.4351 169.291 28.1118 169.293 27.7882C169.322 26.235 168.942 24.702 168.193 23.3452C167.482 22.0697 166.437 21.0163 165.173 20.3003ZM158.588 23.9167C159.247 23.518 160.004 23.3165 160.771 23.3355C161.474 23.3128 162.17 23.4895 162.779 23.8457C163.334 24.1976 163.768 24.7156 164.019 25.3278C164.14 25.6206 164.233 25.9244 164.297 26.2351L156.9 26.2545C156.967 26.0153 157.052 25.7821 157.156 25.557C157.467 24.8827 157.965 24.3132 158.588 23.9167Z" fill="#7345D6"/>
<path d="M183.258 20.7394C182.861 20.4015 182.422 20.1181 181.951 19.8967C180.969 19.4505 179.901 19.2299 178.825 19.2509C177.388 19.2174 175.97 19.5868 174.729 20.3181C173.488 21.0494 172.471 22.114 171.793 23.3936C171.104 24.7246 170.744 26.2041 170.744 27.7059C170.744 29.2077 171.104 30.6872 171.793 32.0181C172.465 33.2817 173.458 34.3416 174.669 35.0888C175.922 35.8522 177.362 36.2428 178.825 36.2157C179.897 36.2307 180.959 36.0023 181.932 35.5473C182.368 35.3389 182.779 35.0799 183.156 34.7756V35.8638C183.156 37.0649 182.778 37.9938 182.021 38.6503C181.265 39.3069 180.223 39.6362 178.895 39.6384C177.95 39.6657 177.012 39.4723 176.153 39.0733C175.365 38.6717 174.669 38.1073 174.11 37.4169L170.827 40.733C171.673 41.9335 172.827 42.878 174.164 43.4647C175.712 44.1406 177.386 44.4711 179.071 44.4334C180.752 44.4642 182.415 44.089 183.923 43.3388C185.293 42.6546 186.452 41.6064 187.276 40.3068C188.114 38.9288 188.538 37.335 188.498 35.7185V19.5964H183.258V20.7394ZM181.775 30.9203C181.18 31.2444 180.514 31.4141 179.838 31.4141C179.162 31.4141 178.496 31.2444 177.901 30.9203C177.356 30.5984 176.913 30.1271 176.623 29.5609C176.324 28.9809 176.168 28.3369 176.168 27.6833C176.168 27.0296 176.324 26.3856 176.623 25.8056C176.916 25.2459 177.359 24.7806 177.901 24.4624C178.493 24.1383 179.157 23.9685 179.83 23.9685C180.504 23.9685 181.167 24.1383 181.759 24.4624C182.296 24.7819 182.732 25.2474 183.019 25.8056C183.323 26.3925 183.48 27.0452 183.479 27.7075C183.49 28.3636 183.341 29.0124 183.044 29.5964C182.751 30.1478 182.311 30.6061 181.775 30.9203Z" fill="#7345D6"/>
<path d="M204.039 19.5964V21.0236C203.567 20.5716 203.027 20.1968 202.441 19.9128C201.474 19.4568 200.417 19.2283 199.35 19.2444C197.877 19.2202 196.428 19.6237 195.175 20.4069C193.954 21.1872 192.957 22.2785 192.285 23.5712C191.558 24.9872 191.192 26.5644 191.221 28.1595C191.192 29.7536 191.558 31.3296 192.285 32.7446C192.958 34.042 193.958 35.137 195.185 35.9187C196.437 36.7028 197.886 37.1074 199.359 37.0843C200.432 37.0983 201.493 36.8688 202.466 36.4127C203.045 36.1371 203.576 35.7698 204.039 35.3245V36.7291H209.278V19.5964H204.039ZM200.44 32.2248C199.758 32.2303 199.088 32.0471 198.503 31.6952C197.926 31.3488 197.454 30.8482 197.141 30.2486C196.808 29.608 196.639 28.8928 196.652 28.1692C196.636 27.4309 196.81 26.7009 197.157 26.051C197.471 25.4626 197.936 24.9698 198.503 24.6238C199.107 24.2872 199.786 24.1106 200.476 24.1106C201.167 24.1106 201.846 24.2872 202.45 24.6238C203.018 24.9619 203.479 25.4571 203.777 26.051C204.104 26.7075 204.269 27.4344 204.256 28.1692C204.294 29.2387 203.918 30.2811 203.208 31.0753C202.856 31.4578 202.427 31.7587 201.949 31.9571C201.471 32.1556 200.956 32.2469 200.44 32.2248Z" fill="#7345D6"/>
<path d="M255.854 22.7963C255.115 21.4733 254.029 20.3818 252.715 19.6416C251.304 18.8652 249.716 18.4746 248.109 18.5083C246.424 18.4805 244.76 18.8967 243.282 19.7159C241.88 20.4973 240.71 21.6419 239.891 23.032C239.849 23.103 239.811 23.1773 239.773 23.2483V10.846H235.671L226.651 25.0888L217.602 10.846H213.526V36.7259H219.187V22.3668L224.739 31.1528H228.514L234.067 22.4153V36.7259H239.763V32.3733C239.808 32.454 239.849 32.538 239.897 32.6187C240.741 34.0331 241.959 35.1816 243.413 35.9348C244.994 36.7531 246.752 37.1625 248.528 37.1263C249.919 37.1427 251.3 36.8815 252.59 36.3578C253.811 35.8545 254.894 35.0627 255.749 34.0491L252.699 30.9687C252.193 31.5625 251.56 32.0328 250.848 32.3442C250.102 32.6597 249.299 32.8159 248.489 32.8027C247.635 32.8238 246.79 32.6154 246.041 32.1989C245.351 31.797 244.794 31.1968 244.443 30.4747C244.318 30.2198 244.216 29.9539 244.139 29.6804L256.762 29.6513C256.849 29.245 256.915 28.8343 256.96 28.4211C256.99 28.0861 257.002 27.7499 256.998 27.4137C257.029 25.7992 256.634 24.2056 255.854 22.7963ZM245.878 23.4001C246.561 22.9852 247.347 22.7757 248.144 22.7963C248.875 22.7731 249.598 22.9565 250.231 23.3258C250.805 23.6931 251.252 24.2313 251.51 24.866C251.636 25.1701 251.733 25.4859 251.798 25.8089L244.126 25.8315C244.197 25.5826 244.287 25.3397 244.395 25.105C244.716 24.4044 245.231 23.8124 245.878 23.4001Z" fill="#2E2E2E"/>
<path d="M43.6898 51.5209H6.58811C4.82954 51.5089 3.14766 50.792 1.91226 49.5277C0.676858 48.2634 -0.0109263 46.5553 0.000131295 44.7789V6.74201C-0.0109263 4.9656 0.676858 3.25746 1.91226 1.99317C3.14766 0.728887 4.82954 0.0119506 6.58811 0L43.6898 0C45.4484 0.0119506 47.1303 0.728887 48.3657 1.99317C49.6011 3.25746 50.2889 4.9656 50.2778 6.74201V44.7789C50.2889 46.5553 49.6011 48.2634 48.3657 49.5277C47.1303 50.792 45.4484 51.5089 43.6898 51.5209Z" fill="#7345D6"/>
<path d="M42.015 25.2761V22.7575C42.0154 22.594 41.9839 22.432 41.9222 22.2808C41.8606 22.1296 41.77 21.9922 41.6557 21.8764C41.5413 21.7606 41.4055 21.6688 41.256 21.6061C41.1065 21.5434 40.9462 21.5112 40.7843 21.5112H8.26318V39.5189C8.26318 39.6839 8.29535 39.8472 8.35783 39.9996C8.42032 40.152 8.51191 40.2905 8.62738 40.4071C8.74284 40.5237 8.87992 40.6162 9.03078 40.6794C9.18164 40.7425 9.34333 40.775 9.50662 40.775H24.9329V37.01H12.6807V33.2774H19.419V29.6126H12.6807V25.2761H42.015Z" fill="white"/>
<path d="M34.3179 19.9193H30.5588C30.5248 18.5167 29.9493 17.1831 28.9552 16.2032C27.9611 15.2233 26.6272 14.6749 25.2382 14.6749C23.8493 14.6749 22.5154 15.2233 21.5213 16.2032C20.5272 17.1831 19.9517 18.5167 19.9177 19.9193H16.1586C16.1359 18.7004 16.3541 17.4891 16.8002 16.3563C17.2463 15.2235 17.9115 14.1919 18.7569 13.3218C19.6022 12.4516 20.6108 11.7605 21.7237 11.2886C22.8365 10.8168 24.0313 10.5738 25.2382 10.5738C26.4451 10.5738 27.6399 10.8168 28.7528 11.2886C29.8656 11.7605 30.8742 12.4516 31.7196 13.3218C32.565 14.1919 33.2301 15.2235 33.6763 16.3563C34.1224 17.4891 34.3405 18.7004 34.3179 19.9193Z" fill="white"/>
<path d="M41.2702 30.6749C40.8715 29.9371 40.2668 29.3341 39.5314 28.9409C38.7543 28.532 37.8885 28.3256 37.0125 28.3404C36.0886 28.3281 35.1764 28.5501 34.3594 28.9861C34.0849 29.1373 33.8268 29.317 33.5891 29.5221C33.3559 29.2988 33.0986 29.1028 32.8219 28.9377C32.1416 28.5429 31.3689 28.3399 30.5844 28.35C29.7336 28.3319 28.8913 28.5225 28.1295 28.9054V28.5825H23.8174V40.775H28.1295V32.3378C28.1635 32.3144 28.1987 32.2928 28.2349 32.2732C28.5018 32.1353 28.7983 32.0665 29.098 32.073C29.5261 32.0609 29.9421 32.2172 30.2583 32.5089C30.4181 32.6648 30.5428 32.8537 30.6239 33.0626C30.705 33.2716 30.7405 33.4957 30.7282 33.7198V40.775H35.0211V33.0255C35.0205 32.8098 35.0088 32.5942 34.9859 32.3797C35.0352 32.3465 35.0865 32.3163 35.1394 32.2893C35.4028 32.1547 35.6944 32.086 35.9896 32.0891C36.4179 32.0757 36.8344 32.2322 37.15 32.5251C37.3098 32.681 37.4344 32.8698 37.5155 33.0788C37.5966 33.2877 37.6322 33.5118 37.6198 33.7359V40.7911H41.9159V33.3678C41.9341 32.4289 41.7117 31.5013 41.2702 30.6749Z" fill="#2E2E2E"/>
</svg>
